<svg width="16" height="10" viewBox="0 0 16 10" fill="none" xmlns="http://www.w3.org/2000/svg">
<path d="M0.0260796 9.4617C0.121704 9.21829 0.260793 8.99227 0.312952 8.74887C0.373804 8.42722 0.399883 8.09688 0.399883 7.77524C0.408576 5.8019 0.399883 3.82857 0.39119 1.84654C0.39119 1.37711 0.425962 0.898991 0.226021 0.455643C0.165169 0.30786 0.0782379 0.177463 0 0.0122943C0.0608517 0.00360122 0.130397 -0.00509241 0.191248 0.00360069C1.24311 0.0122938 2.30367 0.0122938 3.35554 0.0470662C4.42479 0.0818386 5.44188 0.316552 6.31989 0.959842C7.38045 1.73353 7.98027 2.79409 8.16283 4.08067C8.42362 5.97576 7.53692 7.76654 5.89393 8.71409C5.23325 9.09659 4.51172 9.27045 3.76412 9.37477C2.53839 9.53994 1.29527 9.48778 0.0608518 9.47039C0.0434656 9.47039 0.0347727 9.4617 0.0260796 9.4617ZM1.84294 4.49794C1.83425 5.54111 1.83425 6.58428 1.83425 7.62745C1.83425 7.92302 1.83425 8.21859 1.85163 8.51415C1.87771 8.92273 2.06027 9.13136 2.46884 9.16613C3.13821 9.22699 3.79019 9.10528 4.39002 8.80972C5.35495 8.34029 5.95478 7.53183 6.34597 6.5582C6.76324 5.49764 6.73716 4.41101 6.48506 3.31567C6.29381 2.49852 5.9287 1.78569 5.2941 1.22064C4.33786 0.368711 3.19906 0.220928 1.99072 0.299166C1.94726 0.299166 1.8864 0.377404 1.86032 0.438256C1.83425 0.490415 1.85163 0.55996 1.85163 0.620812C1.84294 1.90739 1.84294 3.20266 1.84294 4.49794Z" fill="#282828"/>
<path d="M7.81109 0.0296815C8.48046 0.0296815 9.14114 0.0296815 9.76704 0.0296815C9.76704 0.255702 9.74966 0.464337 9.76704 0.672971C9.80182 1.09893 9.99307 1.49012 10.1495 1.88131C10.8971 3.7851 11.6448 5.68889 12.4011 7.60138C12.4358 7.697 12.488 7.80132 12.5401 7.93171C12.601 7.78393 12.6532 7.66223 12.6966 7.54052C13.4964 5.47157 14.2962 3.39391 15.0959 1.32495C15.2524 0.925071 15.2524 0.533881 15.0177 0.168771C15.0003 0.142692 14.9916 0.116612 14.9742 0.090533C14.9655 0.0731468 14.9655 0.0644538 14.9568 0.0383745C15.3046 0.0383745 15.6523 0.0383745 16 0.0383745C16 0.0644538 16 0.0818404 15.9913 0.0992266C15.4871 0.933765 15.1828 1.84654 14.8351 2.75062C14.2527 4.28061 13.6529 5.79321 13.0617 7.3232C12.8096 7.98387 12.5488 8.64455 12.2967 9.31392C12.2098 9.53994 12.1403 9.5834 11.9229 9.5834C11.7056 9.5834 11.6274 9.53125 11.5491 9.31392C10.5233 6.6886 9.49756 4.05459 8.45439 1.42927C8.28052 0.994616 8.0545 0.577347 7.85456 0.151385C7.84587 0.10792 7.82848 0.073147 7.81109 0.0296815Z" fill="#282828"/>
</svg>
